<?xml version="1.0" encoding="UTF-8"?>
<svg inkscape:version="1.0.2 (e86c870879, 2021-01-15, custom)" sodipodi:docname="BlackOpsLogo.svg" version="1.1" viewBox="0 0 600 165" xmlns="http://www.w3.org/2000/svg" xmlns:cc="http://creativecommons.org/ns#" xmlns:dc="http://purl.org/dc/elements/1.1/" xmlns:inkscape="http://www.inkscape.org/namespaces/inkscape" xmlns:rdf="http://www.w3.org/1999/02/22-rdf-syntax-ns#" xmlns:sodipodi="http://sodipodi.sourceforge.net/DTD/sodipodi-0.dtd" xmlns:xlink="http://www.w3.org/1999/xlink">
 <defs>
  <linearGradient id="cvfa" x1="276.9" x2="276.9" y1="532.3" y2="430.2" gradientTransform="matrix(1.124 0 0 1.124 -12.24 404.3)" gradientUnits="userSpaceOnUse" inkscape:collect="always">
   <stop style="stop-color:#2e2e2e" offset="0"/>
   <stop style="stop-color:#656565" offset="1"/>
  </linearGradient>
 </defs>
 <sodipodi:namedview id="cvfb" bordercolor="#666666" borderopacity="1.0" inkscape:current-layer="layer1" inkscape:cx="337.23188" inkscape:cy="93.070076" inkscape:document-rotation="0" inkscape:document-units="px" inkscape:guide-bbox="true" inkscape:pageopacity="0.0" inkscape:pageshadow="2" inkscape:window-height="1014" inkscape:window-maximized="1" inkscape:window-width="1920" inkscape:window-x="0" inkscape:window-y="36" inkscape:zoom="1.1516667" pagecolor="#ffffff" showgrid="false" showguides="true"/>
 <title>Call of Duty: Black Ops logo</title>
 <metadata>
  <rdf:RDF>
   <cc:Work rdf:about="">
    <dc:format>image/svg+xml</dc:format>
    <dc:type rdf:resource="http://purl.org/dc/dcmitype/StillImage"/>
    <dc:title>Call of Duty: Black Ops logo</dc:title>
   </cc:Work>
  </rdf:RDF>
 </metadata>
 <g transform="translate(0 -887.4)" inkscape:groupmode="layer" inkscape:label="Capa 1">
  <path d="m40.63 889.5c-7.061 1.1e-4 -13.29 1.083-18.72 3.197-5.438 2.114-9.685 4.995-12.75 8.677-3.067 3.682-4.932 7.51-5.55 11.49-0.6185 3.977-0.9133 9.961-0.9133 17.92v32.25c-6.2e-6 10.82 1.011 18.92 3.021 24.31 2.01 5.386 6.11 9.601 12.29 12.65 6.185 3.045 14.04 4.567 23.57 4.567 9.174 0 16.89-1.819 23.15-5.41 6.262-3.591 10.32-7.768 12.15-12.54 1.83-4.773 2.74-12.86 2.74-24.27v-4.286h-32.56v13.84c-4.9e-5 6.045-0.3768 9.886-1.124 11.52-0.7474 1.636-2.32 2.459-4.742 2.459-2.526 1e-5 -4.161-0.8226-4.883-2.459-0.7216-1.636-1.089-5.14-1.089-10.5v-51.29c-3.8e-5 -5.591 0.3674-9.208 1.089-10.89 0.7215-1.682 2.413-2.529 5.094-2.529 2.371 1e-4 3.906 0.6863 4.602 2.073 0.6958 1.386 1.054 4.877 1.054 10.47v19.25h32.56v-10.5c-9e-5 -10.32-0.9923-17.95-2.951-22.83-1.959-4.886-6.058-8.952-12.29-12.22-6.236-3.273-14.16-4.918-23.75-4.918zm260.6 2.283v110.4h40.54c7.684 0 13.43-0.3741 17.25-1.124 3.817-0.75 7.03-2.083 9.625-3.969 2.595-1.886 4.437-4.493 5.48-7.834 1.043-3.341 1.546-9.973 1.546-19.88v-38.64c-8e-5 -10.45-0.3415-17.47-1.054-21.04-0.7125-3.568-2.49-6.821-5.339-9.73-2.85-2.909-7.035-4.98-12.51-6.253-5.471-1.273-15.95-1.932-31.47-1.932zm80.76 0v65.34c0 12.45 0.2632 20.63 0.7728 24.52 0.5096 3.886 2.15 7.565 4.953 11.07 2.803 3.5 7.025 6.354 12.68 8.536 5.656 2.182 12.21 3.267 19.6 3.267 6.675 0 12.47-0.9342 17.39-2.775 4.917-1.841 8.867-4.546 11.87-8.115 3.006-3.568 4.798-7.047 5.41-10.43 0.6114-3.386 0.9484-9.271 0.9484-17.63v-73.77h-32.21v81.36c-5e-5 5.5-0.2922 8.991-0.8782 10.47-0.586 1.477-1.896 2.213-3.934 2.213-1.784 1e-5 -2.962-0.6614-3.548-2.002-0.586-1.341-0.8782-4.42-0.8782-9.239v-82.8zm76.4 0v22.1h19.43v88.31h32.88v-88.31h17.6l15.7 48.34v39.98h30.17v-39.98l23.75-70.43h-29.93c-4.227 17.18-7.259 31.68-9.063 43.45-0.5671-7.454-3.177-21.95-7.869-43.45h-29.93zm-364.1 0.0351-15.95 110.4h32.53l1.862-19.85h11.24l1.581 19.85h32.14l-17.99-110.4zm66.04 0v110.4h52.97v-22.1h-20.02v-88.31zm57.15 0v110.4h50.69v-22.1h-19.14v-88.31zm115.9 18.86c3.511 9e-5 5.929 0.3246 7.201 0.9836 1.272 0.6592 2.068 1.682 2.424 3.091 0.3562 1.409 0.5269 4.625 0.5269 9.625v42.89c-5e-5 7.364-0.5121 11.87-1.581 13.52-1.069 1.659-3.94 2.494-8.571 2.494zm-215.1 5.831c1.591 18.36 3.186 33.8 4.777 46.3h-10.75c0.7955-9.773 2.789-25.21 5.972-46.3zm148.5 0.2459c-2.005 3e-5 -3.762 0.3448-5.269 1.054-1.508 0.7092-2.698 1.732-3.583 3.056-0.8855 1.324-1.412 2.792-1.581 4.391-0.1683 1.6-0.281 4.305-0.281 8.15v6.569c0 3.94 0.1053 6.679 0.281 8.255 0.1756 1.576 0.7289 3.052 1.651 4.391 0.9221 1.339 2.138 2.351 3.653 3.021 1.515 0.6697 3.226 0.9836 5.129 0.9836 2.005-2e-5 3.762-0.3447 5.269-1.054 1.508-0.7091 2.698-1.732 3.583-3.056 0.8855-1.324 1.412-2.791 1.581-4.391 0.1683-1.599 0.2459-4.305 0.2459-8.15v-6.569c-4e-5 -3.94-0.0703-6.679-0.2459-8.255-0.1757-1.576-0.7289-3.051-1.651-4.391-0.9221-1.339-2.138-2.316-3.653-2.986-1.515-0.6697-3.226-1.019-5.129-1.019zm13.03 0.7377v37.83h9.239v-15.88h5.691v-7.201h-5.691v-7.166h6.393v-7.588zm-13 5.726c0.5708 4e-5 0.9411 0.2765 1.124 0.7728 0.1829 0.4964 0.281 1.627 0.281 3.407v17.56c-2e-5 2.253-0.1054 3.687-0.281 4.286-0.1756 0.5988-0.565 0.9133-1.194 0.9133-0.6148 1e-5 -0.9909-0.2528-1.159-0.7728-0.1683-0.52-0.281-1.888-0.281-4.11v-17.88c-1e-5 -1.97 0.1303-3.146 0.3864-3.548 0.2561-0.4018 0.6411-0.6323 1.124-0.6323z" style="fill:url(#cvfa)" inkscape:connector-curvature="0"/>
  <g transform="matrix(2.547 0 0 2.547 -381.7 -1530)" style="fill:#545454">
   <path d="m198.1 999.6h-8.036v3.151h8.036c0.5624 0 0.9282-0.059 1.097-0.1759 0.169-0.1173 0.2535-0.3352 0.2535-0.6535v-1.492c-1e-5 -0.3044-0.0867-0.5187-0.2601-0.643-0.1734-0.1243-0.5369-0.1864-1.09-0.1864zm0 6.356h-8.036v3.405h8.036c0.6087 0 1.001-0.075 1.177-0.2259 0.1759-0.1506 0.2639-0.4462 0.2639-0.887v-1.194c-1e-5 -0.4324-0.0894-0.7236-0.2682-0.8736-0.1788-0.1499-0.5698-0.2249-1.173-0.2249zm-12.32 6.849v-16.38h13.85c1.332 1e-5 2.31 0.2733 2.934 0.8199 0.6242 0.5466 0.9364 1.394 0.9364 2.543v1.925c-2e-5 0.8338-0.2632 1.506-0.7895 2.016-0.5263 0.5102-1.168 0.7272-1.926 0.6511 0.7939-0.076 1.465 0.1791 2.013 0.7657 0.5482 0.5865 0.8222 1.337 0.8223 2.252v2.015c-2e-5 1.149-0.4201 2.002-1.26 2.558-0.8402 0.5564-2.079 0.8346-3.715 0.8346z" style="fill:#545454" inkscape:connector-curvature="0"/>
   <path d="m205.4 1013v-16.38h4.34v12.8h11.83v3.578z" style="fill:#545454" inkscape:connector-curvature="0"/>
   <path d="m229.5 1006h6.239l-3.072-5.808zm-7.727 6.905 9.053-16.38h3.939l9.179 16.38h-4.664l-1.896-3.447h-9.576l-1.836 3.447z" style="fill:#545454" inkscape:connector-curvature="0"/>
   <path d="m257.4 999.9h-9.222v9.374h9.222v-3.387l4.341 0.8266v2.104c-3e-5 1.524-0.3025 2.578-0.9074 3.161-0.605 0.5828-1.717 0.8741-3.338 0.8741h-9.415c-1.63 0-2.744-0.2915-3.344-0.8746-0.5999-0.583-0.8998-1.636-0.8998-3.16v-8.311c0-1.51 0.3006-2.56 0.9017-3.15 0.6011-0.59 1.715-0.885 3.342-0.885h9.415c1.614 1e-5 2.725 0.2957 3.333 0.887 0.6081 0.5913 0.9121 1.641 0.9122 3.148v1.752l-4.341 0.6268z" style="fill:#545454" inkscape:connector-curvature="0"/>
   <path d="m262.9 1013v-16.38h4.37v6.58l8.287-6.58h5.769l-10.44 7.738 11.73 8.643h-6.35l-8.989-6.939v6.939z" style="fill:#545454" inkscape:connector-curvature="0"/>
   <path d="m290.4 1001c-1e-5 -1.51 0.3006-2.56 0.9017-3.15 0.6011-0.59 1.715-0.885 3.342-0.885h11.61c1.623 1e-5 2.736 0.2958 3.34 0.8874 0.603 0.5916 0.9045 1.641 0.9045 3.147v8.311c-2e-5 1.521-0.3009 2.573-0.9026 3.158-0.6018 0.5846-1.716 0.8769-3.341 0.8769h-11.61c-1.63 0-2.744-0.2915-3.344-0.8746-0.5999-0.583-0.8998-1.636-0.8998-3.16zm4.34 8.768h11.43v-9.374h-11.43z" style="fill:#545454" inkscape:connector-curvature="0"/>
   <path d="m324.5 999.8h-7.916v3.57h7.916c0.5536 0 0.9123-0.065 1.076-0.1935 0.1639-0.1291 0.2459-0.381 0.2459-0.7557v-1.686c-2e-5 -0.3614-0.0829-0.6075-0.2487-0.7381-0.1658-0.1306-0.5236-0.1959-1.073-0.196zm-12.2 13.04v-16.38h13.82c1.338 1e-5 2.323 0.2711 2.954 0.8132 0.6312 0.5422 0.9468 1.392 0.9469 2.55v3.521c-2e-5 1.152-0.3147 1.998-0.944 2.538-0.6294 0.5405-1.615 0.8108-2.957 0.8108h-9.543v6.147z" style="fill:#545454" inkscape:connector-curvature="0"/>
   <path d="m344.4 999.8h-9.655v2.779h9.498c1.633 0 2.753 0.2955 3.361 0.8865 0.6081 0.591 0.9121 1.64 0.9122 3.147v2.164c-3e-5 1.51-0.3033 2.56-0.9098 3.15-0.6065 0.5897-1.728 0.8845-3.364 0.8845h-9.744c-1.64 0-2.762-0.294-3.367-0.8822-0.6049-0.5881-0.9074-1.639-0.9074-3.153v-0.6724l3.907-0.7362v1.865h10.48v-2.988h-9.498c-1.63 0-2.745-0.294-3.345-0.8822-0.5996-0.5881-0.8993-1.639-0.8993-3.152v-1.746c-1e-5 -1.51 0.3006-2.56 0.9017-3.15 0.6011-0.59 1.715-0.885 3.342-0.885h8.952c1.569 1e-5 2.669 0.2844 3.3 0.8532 0.6303 0.5688 0.9454 1.54 0.9454 2.913v0.566l-3.908 0.8275z" style="fill:#545454" inkscape:connector-curvature="0"/>
  </g>
 </g>
</svg>
